<svg xmlns="http://www.w3.org/2000/svg" version="1.1" xmlns:xlink="http://www.w3.org/1999/xlink" xmlns:svgjs="http://svgjs.dev/svgjs" width="1500" height="181" viewBox="0 0 1500 181"><g transform="matrix(1,0,0,1,-0.9090909090909918,-1.1036002445831485)"><svg viewBox="0 0 396 48" data-background-color="#ffffff" preserveAspectRatio="xMidYMid meet" height="181" width="1500" xmlns="http://www.w3.org/2000/svg" xmlns:xlink="http://www.w3.org/1999/xlink"><g id="tight-bounds" transform="matrix(1,0,0,1,0.2400000000000091,0.29266746817674516)"><svg viewBox="0 0 395.52 47.41466506364649" height="47.41466506364649" width="395.52"><g><svg viewBox="0 0 467.8924578695403 56.0906254442015" height="47.41466506364649" width="395.52"><g><rect width="3.0612274278827427" height="56.0906254442015" x="61.297546075472376" y="0" fill="#111111" opacity="1" stroke-width="0" stroke="transparent" fill-opacity="1" class="rect-yte-0" data-fill-palette-color="primary" rx="1%" id="yte-0" data-palette-color="#111111"></rect></g><g transform="matrix(1,0,0,1,72.37245786954031,0.1395289190154223)"><svg viewBox="0 0 395.52 55.811567606170655" height="55.811567606170655" width="395.52"><g id="textblocktransform"><svg viewBox="0 0 395.52 55.811567606170655" height="55.811567606170655" width="395.52" id="textblock"><g><svg viewBox="0 0 395.52 33.94535813121702" height="33.94535813121702" width="395.52"><g transform="matrix(1,0,0,1,0,0)"><svg width="395.52" viewBox="1.95 -33.28 504.33 43.290850697216996" height="33.94535813121702" data-palette-color="#111111"><path d="M25.02-10.5Q26.03-10.5 26.44-10.13 26.86-9.77 26.86-8.91L26.86-8.91 26.86-1.66Q26.86-0.76 26.5-0.38 26.15 0 25.32 0L25.32 0 3.49 0Q2.66 0 2.31-0.38 1.95-0.76 1.95-1.66L1.95-1.66Q1.95-2.56 2.31-2.94 2.66-3.32 3.49-3.32L3.49-3.32 5.98-3.32 5.98-25.66 3.49-25.66Q2.66-25.66 2.31-26.04 1.95-26.42 1.95-27.32L1.95-27.32Q1.95-28.22 2.31-28.6 2.66-28.98 3.49-28.98L3.49-28.98 24.83-28.98Q25.66-28.98 26.01-28.6 26.37-28.22 26.37-27.32L26.37-27.32 26.37-21.12Q26.37-20.26 25.95-19.9 25.54-19.53 24.54-19.53L24.54-19.53Q23.54-19.53 23.12-19.9 22.71-20.26 22.71-21.12L22.71-21.12 22.71-25.66 9.64-25.66 9.64-16.6 15.94-16.6 15.94-18.82Q15.94-19.68 16.32-20.04 16.7-20.41 17.68-20.41L17.68-20.41Q18.65-20.41 19.03-20.04 19.41-19.68 19.41-18.82L19.41-18.82 19.41-11.06Q19.41-10.21 19.03-9.84 18.65-9.47 17.68-9.47L17.68-9.47Q16.7-9.47 16.32-9.84 15.94-10.21 15.94-11.06L15.94-11.06 15.94-13.28 9.64-13.28 9.64-3.32 23.19-3.32 23.19-8.91Q23.19-9.77 23.61-10.13 24.02-10.5 25.02-10.5L25.02-10.5ZM43.63-23.1Q46.02-23.1 48.04-22.02 50.07-20.95 51.61-18.95L51.61-18.95 51.61-20.9Q51.61-21.8 51.96-22.18 52.32-22.56 53.15-22.56L53.15-22.56 57.03-22.56Q57.86-22.56 58.21-22.18 58.57-21.8 58.57-20.9L58.57-20.9Q58.57-20 58.21-19.62 57.86-19.24 57.03-19.24L57.03-19.24 55.03-19.24 55.03 0.73Q55.03 3.64 53.79 5.73 52.56 7.81 50.22 8.91 47.87 10.01 44.58 10.01L44.58 10.01Q42.23 10.01 39.84 9.61 37.45 9.2 35.37 8.45L35.37 8.45Q34.42 8.11 34.42 7.15L34.42 7.15Q34.42 6.76 34.62 6.18L34.62 6.18Q35.06 4.83 36.01 4.83L36.01 4.83Q36.28 4.83 36.55 4.93L36.55 4.93Q38.45 5.62 40.55 6.01 42.65 6.4 44.58 6.4L44.58 6.4Q47.95 6.4 49.66 4.8 51.36 3.2 51.36 0.42L51.36 0.42 51.36-4.49Q48.34-0.68 43.63-0.68L43.63-0.68Q40.6-0.68 38.21-2.04 35.81-3.39 34.45-5.93 33.08-8.47 33.08-11.89L33.08-11.89Q33.08-15.31 34.45-17.85 35.81-20.39 38.21-21.74 40.6-23.1 43.63-23.1L43.63-23.1ZM43.87-19.48Q41.7-19.48 40.13-18.52 38.57-17.55 37.75-15.83 36.94-14.11 36.94-11.89L36.94-11.89Q36.94-9.67 37.75-7.95 38.57-6.23 40.13-5.26 41.7-4.3 43.87-4.3L43.87-4.3Q46.04-4.3 47.74-5.2 49.44-6.1 50.4-7.82 51.36-9.55 51.36-11.89L51.36-11.89Q51.36-14.23 50.4-15.95 49.44-17.68 47.74-18.58 46.04-19.48 43.87-19.48L43.87-19.48ZM87.18-22.56Q88.01-22.56 88.36-22.18 88.72-21.8 88.72-20.9L88.72-20.9Q88.72-20 88.36-19.62 88.01-19.24 87.18-19.24L87.18-19.24 85.66-19.24 75.68 1.22Q74.09 4.47 72.58 6.32 71.06 8.18 69.17 9.05 67.28 9.91 64.57 10.01L64.57 10.01Q63.72 10.03 63.25 9.58 62.79 9.13 62.79 7.98L62.79 7.98Q62.79 6.4 64.08 6.32L64.08 6.32Q66.43 6.2 67.81 5.54 69.18 4.88 70.34 3.28 71.5 1.68 73.19-1.71L73.19-1.71 64.25-19.24 62.71-19.24Q61.88-19.24 61.53-19.62 61.18-20 61.18-20.9L61.18-20.9Q61.18-21.8 61.53-22.18 61.88-22.56 62.71-22.56L62.71-22.56 71.36-22.56Q72.19-22.56 72.54-22.18 72.9-21.8 72.9-20.9L72.9-20.9Q72.9-20 72.54-19.62 72.19-19.24 71.36-19.24L71.36-19.24 68.23-19.24 75.12-5.52 81.68-19.24 79.51-19.24Q78.68-19.24 78.33-19.62 77.97-20 77.97-20.9L77.97-20.9Q77.97-21.8 78.33-22.18 78.68-22.56 79.51-22.56L79.51-22.56 87.18-22.56ZM106.27-23.1Q109.29-23.1 111.69-21.67 114.08-20.24 115.45-17.57 116.81-14.89 116.81-11.28L116.81-11.28Q116.81-7.67 115.45-4.99 114.08-2.32 111.69-0.89 109.29 0.54 106.27 0.54L106.27 0.54Q101.68 0.54 98.53-3.49L98.53-3.49 98.53 6.15 102.73 6.15Q103.56 6.15 103.91 6.53 104.26 6.91 104.26 7.81L104.26 7.81Q104.26 8.72 103.91 9.09 103.56 9.47 102.73 9.47L102.73 9.47 92.38 9.47Q91.55 9.47 91.19 9.09 90.84 8.72 90.84 7.81L90.84 7.81Q90.84 6.91 91.19 6.53 91.55 6.15 92.38 6.15L92.38 6.15 94.87 6.15 94.87-19.24 92.86-19.24Q92.03-19.24 91.68-19.62 91.33-20 91.33-20.9L91.33-20.9Q91.33-21.8 91.68-22.18 92.03-22.56 92.86-22.56L92.86-22.56 96.75-22.56Q97.58-22.56 97.93-22.18 98.28-21.8 98.28-20.9L98.28-20.9 98.28-18.95Q99.82-20.95 101.85-22.02 103.87-23.1 106.27-23.1L106.27-23.1ZM106.02-19.48Q103.85-19.48 102.15-18.51 100.46-17.53 99.49-15.67 98.53-13.82 98.53-11.28L98.53-11.28Q98.53-8.74 99.49-6.88 100.46-5.03 102.15-4.05 103.85-3.08 106.02-3.08L106.02-3.08Q108.2-3.08 109.76-4.11 111.32-5.15 112.14-7.01 112.96-8.86 112.96-11.28L112.96-11.28Q112.96-13.7 112.14-15.55 111.32-17.41 109.76-18.44 108.2-19.48 106.02-19.48L106.02-19.48ZM131.09-29.52Q132.09-29.52 132.51-29.15 132.92-28.78 132.92-27.93L132.92-27.93 132.92-20.61 142.96-20.61Q143.79-20.61 144.14-20.23 144.5-19.85 144.5-18.95L144.5-18.95Q144.5-18.04 144.14-17.66 143.79-17.29 142.96-17.29L142.96-17.29 132.92-17.29 132.92-8.4Q132.92-5.62 133.89-4.32 134.85-3.03 137.25-3.03L137.25-3.03Q138.88-3.03 140.69-3.69 142.49-4.35 144.18-5.44L144.18-5.44Q144.52-5.69 144.94-5.69L144.94-5.69Q145.77-5.69 146.35-4.57L146.35-4.57Q146.67-3.93 146.67-3.47L146.67-3.47Q146.67-2.69 145.86-2.2L145.86-2.2Q143.96-1 141.62-0.23 139.27 0.54 137.25 0.54L137.25 0.54Q133.1 0.54 131.18-1.62 129.26-3.78 129.26-8.08L129.26-8.08 129.26-17.29 124.31-17.29Q123.48-17.29 123.12-17.66 122.77-18.04 122.77-18.95L122.77-18.95Q122.77-19.85 123.12-20.23 123.48-20.61 124.31-20.61L124.31-20.61 129.26-20.61 129.26-27.93Q129.26-28.78 129.68-29.15 130.09-29.52 131.09-29.52L131.09-29.52ZM165.76-22.56Q166.59-22.56 166.94-22.18 167.3-21.8 167.3-20.9L167.3-20.9 167.3-3.32 175.13-3.32Q175.96-3.32 176.32-2.94 176.67-2.56 176.67-1.66L176.67-1.66Q176.67-0.76 176.32-0.38 175.96 0 175.13 0L175.13 0 155.99 0Q155.16 0 154.81-0.38 154.46-0.76 154.46-1.66L154.46-1.66Q154.46-2.56 154.81-2.94 155.16-3.32 155.99-3.32L155.99-3.32 163.63-3.32 163.63-19.24 157.46-19.24Q156.63-19.24 156.27-19.62 155.92-20 155.92-20.9L155.92-20.9Q155.92-21.8 156.27-22.18 156.63-22.56 157.46-22.56L157.46-22.56 165.76-22.56ZM164.98-33.28Q166.32-33.28 166.81-32.92 167.3-32.57 167.3-31.69L167.3-31.69 167.3-28.52Q167.3-27.64 166.81-27.28 166.32-26.93 164.98-26.93L164.98-26.93Q163.63-26.93 163.15-27.28 162.66-27.64 162.66-28.52L162.66-28.52 162.66-31.69Q162.66-32.57 163.15-32.92 163.63-33.28 164.98-33.28L164.98-33.28ZM194.86-23.1Q198.2-23.1 200.89-21.58 203.57-20.07 205.1-17.37 206.63-14.67 206.63-11.28L206.63-11.28Q206.63-7.89 205.1-5.19 203.57-2.49 200.89-0.98 198.2 0.54 194.86 0.54L194.86 0.54Q191.51 0.54 188.83-0.98 186.14-2.49 184.62-5.19 183.09-7.89 183.09-11.28L183.09-11.28Q183.09-14.67 184.62-17.37 186.14-20.07 188.83-21.58 191.51-23.1 194.86-23.1L194.86-23.1ZM194.86-19.48Q192.49-19.48 190.7-18.44 188.9-17.41 187.92-15.54 186.95-13.67 186.95-11.28L186.95-11.28Q186.95-8.89 187.92-7.02 188.9-5.15 190.7-4.11 192.49-3.08 194.86-3.08L194.86-3.08Q197.23-3.08 199.02-4.11 200.82-5.15 201.79-7.02 202.77-8.89 202.77-11.28L202.77-11.28Q202.77-13.67 201.79-15.54 200.82-17.41 199.02-18.44 197.23-19.48 194.86-19.48L194.86-19.48ZM227.59-23.1Q229.82-23.1 231.45-22.13 233.09-21.17 233.97-19.36 234.85-17.55 234.85-15.14L234.85-15.14 234.85-3.32 236.85-3.32Q237.68-3.32 238.03-2.94 238.39-2.56 238.39-1.66L238.39-1.66Q238.39-0.76 238.03-0.38 237.68 0 236.85 0L236.85 0 228.94 0Q228.11 0 227.75-0.38 227.4-0.76 227.4-1.66L227.4-1.66Q227.4-2.56 227.75-2.94 228.11-3.32 228.94-3.32L228.94-3.32 231.18-3.32 231.18-14.77Q231.18-16.94 230.18-18.21 229.18-19.48 227.23-19.48L227.23-19.48Q225.15-19.48 223.36-18.29 221.56-17.09 220.49-14.99 219.42-12.89 219.42-10.3L219.42-10.3 219.42-3.32 221.66-3.32Q222.49-3.32 222.85-2.94 223.2-2.56 223.2-1.66L223.2-1.66Q223.2-0.76 222.85-0.38 222.49 0 221.66 0L221.66 0 213.75 0Q212.92 0 212.57-0.38 212.21-0.76 212.21-1.66L212.21-1.66Q212.21-2.56 212.57-2.94 212.92-3.32 213.75-3.32L213.75-3.32 215.75-3.32 215.75-19.24 213.26-19.24Q212.43-19.24 212.08-19.62 211.73-20 211.73-20.9L211.73-20.9Q211.73-21.8 212.08-22.18 212.43-22.56 213.26-22.56L213.26-22.56 217.63-22.56Q218.46-22.56 218.82-22.18 219.17-21.8 219.17-20.9L219.17-20.9 219.17-17.97Q220.78-20.46 222.94-21.78 225.1-23.1 227.59-23.1L227.59-23.1ZM295.27-28.98Q296.1-28.98 296.45-28.6 296.8-28.22 296.8-27.32L296.8-27.32 296.8-18.12Q296.8-17.26 296.39-16.89 295.97-16.53 294.97-16.53L294.97-16.53Q293.97-16.53 293.56-16.89 293.14-17.26 293.14-18.12L293.14-18.12 293.14-25.66 286.62-25.66 286.62-3.32 292.38-3.32Q293.21-3.32 293.57-2.94 293.92-2.56 293.92-1.66L293.92-1.66Q293.92-0.76 293.57-0.38 293.21 0 292.38 0L292.38 0 277.2 0Q276.37 0 276.02-0.38 275.66-0.76 275.66-1.66L275.66-1.66Q275.66-2.56 276.02-2.94 276.37-3.32 277.2-3.32L277.2-3.32 282.96-3.32 282.96-25.66 276.44-25.66 276.44-18.12Q276.44-17.26 276.03-16.89 275.61-16.53 274.61-16.53L274.61-16.53Q273.61-16.53 273.2-16.89 272.78-17.26 272.78-18.12L272.78-18.12 272.78-27.32Q272.78-28.22 273.13-28.6 273.49-28.98 274.32-28.98L274.32-28.98 295.27-28.98ZM322.24-23.1Q324.14-23.1 325.81-22.12L325.81-22.12Q326.78-21.53 326.78-20.61L326.78-20.61Q326.78-20.17 326.56-19.58L326.56-19.58Q326.05-18.19 325.15-18.19L325.15-18.19Q324.78-18.19 324.46-18.38L324.46-18.38Q323.27-19.04 321.9-19.04L321.9-19.04Q319.7-19.04 317.48-17.52 315.26-15.99 313.83-13.45 312.4-10.91 312.4-8.06L312.4-8.06 312.4-3.32 320.63-3.32Q321.46-3.32 321.81-2.94 322.17-2.56 322.17-1.66L322.17-1.66Q322.17-0.76 321.81-0.38 321.46 0 320.63 0L320.63 0 304.91 0Q304.08 0 303.72-0.38 303.37-0.76 303.37-1.66L303.37-1.66Q303.37-2.56 303.72-2.94 304.08-3.32 304.91-3.32L304.91-3.32 308.74-3.32 308.74-19.24 305.64-19.24Q304.81-19.24 304.45-19.62 304.1-20 304.1-20.9L304.1-20.9Q304.1-21.8 304.45-22.18 304.81-22.56 305.64-22.56L305.64-22.56 310.62-22.56Q311.45-22.56 311.8-22.18 312.16-21.8 312.16-20.9L312.16-20.9 312.16-15.97Q313.33-18.12 314.99-19.73 316.65-21.34 318.53-22.22 320.41-23.1 322.24-23.1L322.24-23.1ZM344.97-23.1Q348.51-23.1 351.01-21.67 353.51-20.24 354.86-17.71 356.2-15.19 356.39-11.89L356.39-11.89Q356.39-11.06 356.04-10.72 355.69-10.38 354.86-10.38L354.86-10.38 337.18-10.38Q337.35-6.74 339.34-4.87 341.33-3 344.97-3L344.97-3Q347.21-3 349.41-3.58 351.61-4.15 353.27-5.1L353.27-5.1Q353.68-5.32 354.03-5.32L354.03-5.32Q354.88-5.32 355.42-4.03L355.42-4.03Q355.64-3.52 355.64-3.1L355.64-3.1Q355.64-2.12 354.56-1.59L354.56-1.59Q352.68-0.63 350.12-0.05 347.56 0.54 344.97 0.54L344.97 0.54Q341.28 0.54 338.67-0.88 336.06-2.29 334.69-4.96 333.32-7.62 333.32-11.28L333.32-11.28Q333.32-14.77 334.81-17.46 336.3-20.14 338.94-21.62 341.57-23.1 344.97-23.1L344.97-23.1ZM344.97-19.56Q341.96-19.56 340-18.03 338.03-16.5 337.42-13.79L337.42-13.79 352.34-13.79Q351.83-16.6 349.98-18.08 348.14-19.56 344.97-19.56L344.97-19.56ZM374.82-23.1Q379.41-23.1 381.71-21.04 384-18.99 384-14.97L384-14.97 384-5.25Q384-3.32 385.61-3.32L385.61-3.32 386.47-3.32Q387.3-3.32 387.65-2.94 388.01-2.56 388.01-1.66L388.01-1.66Q388.01-0.76 387.65-0.38 387.3 0 386.47 0L386.47 0 384.91 0Q383.32 0 382.18-0.79 381.05-1.59 380.71-3.13L380.71-3.13Q378.71-1.37 376.37-0.42 374.04 0.54 371.43 0.54L371.43 0.54Q368.96 0.54 367.07-0.31 365.18-1.15 364.11-2.76 363.03-4.37 363.03-6.59L363.03-6.59Q363.03-10.45 365.79-12.29 368.55-14.14 372.92-14.14L372.92-14.14Q376.8-14.14 380.34-12.89L380.34-12.89 380.34-14.97Q380.34-17.33 379.01-18.44 377.68-19.56 374.73-19.56L374.73-19.56Q372.89-19.56 370.92-19.04 368.94-18.53 367.16-17.63L367.16-17.63Q366.74-17.41 366.4-17.41L366.4-17.41Q365.6-17.41 365.06-18.58L365.06-18.58Q364.79-19.17 364.79-19.56L364.79-19.56Q364.79-20.41 365.69-20.87L365.69-20.87Q367.74-21.95 370.1-22.52 372.46-23.1 374.82-23.1L374.82-23.1ZM372.94-10.69Q370.14-10.69 368.51-9.73 366.89-8.76 366.89-6.67L366.89-6.67Q366.89-4.88 368.12-3.89 369.35-2.91 371.58-2.91L371.58-2.91Q376.43-2.91 380.34-6.93L380.34-6.93 380.34-9.59Q378.68-10.13 376.78-10.41 374.87-10.69 372.94-10.69L372.94-10.69ZM412.39-23.1Q413.4-23.1 413.81-22.73 414.23-22.36 414.23-21.51L414.23-21.51 414.23-16.87Q414.23-16.02 413.81-15.65 413.4-15.28 412.39-15.28L412.39-15.28Q411.56-15.28 411.22-15.92L411.22-15.92Q410.17-17.92 408.17-18.74 406.17-19.56 403.09-19.56L403.09-19.56Q400.72-19.56 399.39-18.71 398.06-17.87 398.06-16.36L398.06-16.36Q398.06-15.58 398.56-15.09 399.06-14.6 400.04-14.28L400.04-14.28Q400.85-14.01 401.91-13.87 402.97-13.72 404.66-13.55L404.66-13.55Q407.02-13.28 408.48-13.05 409.93-12.82 411.22-12.35L411.22-12.35Q413.18-11.65 414.26-10.3 415.35-8.96 415.35-6.76L415.35-6.76Q415.35-4.57 414.24-2.92 413.13-1.27 410.99-0.37 408.85 0.54 405.88 0.54L405.88 0.54Q403.24 0.54 401.24-0.2 399.24-0.93 397.75-2.42L397.75-2.42 397.75-1.05Q397.75-0.2 397.33 0.17 396.92 0.54 395.91 0.54L395.91 0.54Q394.91 0.54 394.5 0.17 394.08-0.2 394.08-1.05L394.08-1.05 394.08-6.91Q394.08-7.76 394.5-8.13 394.91-8.5 395.91-8.5L395.91-8.5Q396.43-8.5 396.72-8.26 397.01-8.03 397.23-7.5L397.23-7.5Q398.11-5.15 400.16-4.08 402.21-3 405.63-3L405.63-3Q408.46-3 409.98-4.03 411.49-5.05 411.49-6.76L411.49-6.76Q411.49-7.59 410.95-8.13 410.42-8.67 409.42-9.01L409.42-9.01Q408.56-9.28 407.45-9.46 406.34-9.64 404.63-9.81L404.63-9.81Q402.34-10.06 400.8-10.33 399.26-10.6 397.97-11.11L397.97-11.11Q396.18-11.82 395.19-13.07 394.21-14.33 394.21-16.36L394.21-16.36Q394.21-18.48 395.32-20.01 396.43-21.53 398.39-22.31 400.36-23.1 402.85-23.1L402.85-23.1Q405.22-23.1 407.18-22.39 409.15-21.68 410.56-20.41L410.56-20.41 410.56-21.51Q410.56-22.36 410.98-22.73 411.39-23.1 412.39-23.1L412.39-23.1ZM442.54-22.56Q443.37-22.56 443.73-22.18 444.08-21.8 444.08-20.9L444.08-20.9 444.08-3.32 446.08-3.32Q446.91-3.32 447.27-2.94 447.62-2.56 447.62-1.66L447.62-1.66Q447.62-0.76 447.27-0.38 446.91 0 446.08 0L446.08 0 442.2 0Q441.37 0 441.02-0.37 440.66-0.73 440.66-1.64L440.66-1.64 440.66-4.59Q439.05-2.1 436.89-0.78 434.73 0.54 432.24 0.54L432.24 0.54Q430.02 0.54 428.38-0.43 426.75-1.39 425.87-3.2 424.99-5 424.99-7.42L424.99-7.42 424.99-19.24 422.99-19.24Q422.16-19.24 421.8-19.62 421.45-20 421.45-20.9L421.45-20.9Q421.45-21.8 421.8-22.18 422.16-22.56 422.99-22.56L422.99-22.56 427.11-22.56Q427.94-22.56 428.3-22.18 428.65-21.8 428.65-20.9L428.65-20.9 428.65-7.79Q428.65-5.62 429.65-4.35 430.65-3.08 432.61-3.08L432.61-3.08Q434.68-3.08 436.48-4.27 438.27-5.47 439.34-7.57 440.42-9.67 440.42-12.26L440.42-12.26 440.42-19.24 436.95-19.24Q436.12-19.24 435.77-19.62 435.41-20 435.41-20.9L435.41-20.9Q435.41-21.8 435.77-22.18 436.12-22.56 436.95-22.56L436.95-22.56 442.54-22.56ZM472.13-23.1Q474.03-23.1 475.69-22.12L475.69-22.12Q476.67-21.53 476.67-20.61L476.67-20.61Q476.67-20.17 476.45-19.58L476.45-19.58Q475.94-18.19 475.04-18.19L475.04-18.19Q474.67-18.19 474.35-18.38L474.35-18.38Q473.16-19.04 471.79-19.04L471.79-19.04Q469.59-19.04 467.37-17.52 465.15-15.99 463.72-13.45 462.29-10.91 462.29-8.06L462.29-8.06 462.29-3.32 470.52-3.32Q471.35-3.32 471.7-2.94 472.06-2.56 472.06-1.66L472.06-1.66Q472.06-0.76 471.7-0.38 471.35 0 470.52 0L470.52 0 454.8 0Q453.97 0 453.61-0.38 453.26-0.76 453.26-1.66L453.26-1.66Q453.26-2.56 453.61-2.94 453.97-3.32 454.8-3.32L454.8-3.32 458.63-3.32 458.63-19.24 455.53-19.24Q454.7-19.24 454.34-19.62 453.99-20 453.99-20.9L453.99-20.9Q453.99-21.8 454.34-22.18 454.7-22.56 455.53-22.56L455.53-22.56 460.51-22.56Q461.34-22.56 461.69-22.18 462.05-21.8 462.05-20.9L462.05-20.9 462.05-15.97Q463.22-18.12 464.88-19.73 466.54-21.34 468.42-22.22 470.3-23.1 472.13-23.1L472.13-23.1ZM494.86-23.1Q498.4-23.1 500.9-21.67 503.4-20.24 504.75-17.71 506.09-15.19 506.28-11.89L506.28-11.89Q506.28-11.06 505.93-10.72 505.58-10.38 504.75-10.38L504.75-10.38 487.07-10.38Q487.24-6.74 489.23-4.87 491.22-3 494.86-3L494.86-3Q497.1-3 499.3-3.58 501.5-4.15 503.16-5.1L503.16-5.1Q503.57-5.32 503.92-5.32L503.92-5.32Q504.77-5.32 505.31-4.03L505.31-4.03Q505.53-3.52 505.53-3.1L505.53-3.1Q505.53-2.12 504.45-1.59L504.45-1.59Q502.57-0.63 500.01-0.05 497.45 0.54 494.86 0.54L494.86 0.54Q491.17 0.54 488.56-0.88 485.95-2.29 484.58-4.96 483.21-7.62 483.21-11.28L483.21-11.28Q483.21-14.77 484.7-17.46 486.19-20.14 488.83-21.62 491.46-23.1 494.86-23.1L494.86-23.1ZM494.86-19.56Q491.85-19.56 489.89-18.03 487.92-16.5 487.31-13.79L487.31-13.79 502.23-13.79Q501.72-16.6 499.87-18.08 498.03-19.56 494.86-19.56L494.86-19.56Z" opacity="1" transform="matrix(1,0,0,1,0,0)" fill="#111111" class="wordmark-text-0" data-fill-palette-color="primary" id="text-0"></path></svg></g></svg></g><g transform="matrix(1,0,0,1,0,41.95904249740221)"><svg viewBox="0 0 232.20979199999996 13.852525108768448" height="13.852525108768448" width="232.20979199999996"><g transform="matrix(1,0,0,1,0,0)"><svg width="232.20979199999996" viewBox="4.85 -36.55 808 48.099999999999994" height="13.852525108768448" data-palette-color="#111111"><path d="M7.15 0L4.85 0 4.85-32.95 7.15-32.95 7.15-18.5 24.8-18.5 24.8-32.95 27.1-32.95 27.1 0 24.8 0 24.8-16.5 7.15-16.5 7.15 0ZM41.8 0.6L41.8 0.6Q40.35 0.6 39.1 0.2 37.85-0.2 36.9-1 35.95-1.8 35.4-3.05 34.85-4.3 34.85-6L34.85-6Q34.85-10 38.57-12.08 42.3-14.15 50.35-15.05L50.35-15.05Q50.35-16.4 50.15-17.78 49.95-19.15 49.3-20.23 48.65-21.3 47.55-21.98 46.45-22.65 44.65-22.65L44.65-22.65Q42.25-22.65 40.25-21.7 38.25-20.75 37-19.85L37-19.85 36-21.5Q36.65-21.95 37.57-22.5 38.5-23.05 39.65-23.5 40.8-23.95 42.15-24.28 43.5-24.6 44.95-24.6L44.95-24.6Q47.05-24.6 48.5-23.88 49.95-23.15 50.85-21.9 51.75-20.65 52.15-18.98 52.55-17.3 52.55-15.35L52.55-15.35 52.55 0 50.65 0 50.45-3.1 50.3-3.1Q48.45-1.65 46.32-0.53 44.2 0.6 41.8 0.6ZM42.2-1.3L42.2-1.3Q44.3-1.3 46.2-2.3 48.1-3.3 50.35-5.2L50.35-5.2 50.35-13.35Q46.65-12.9 44.1-12.25 41.55-11.6 40-10.7 38.45-9.8 37.77-8.65 37.1-7.5 37.1-6.1L37.1-6.1Q37.1-4.8 37.5-3.9 37.9-3 38.6-2.43 39.3-1.85 40.22-1.58 41.15-1.3 42.2-1.3ZM63.3 0L61.1 0 61.1-24 63-24 63.2-20.3 63.35-20.3Q65.2-22.15 67.15-23.38 69.09-24.6 71.59-24.6L71.59-24.6Q75.34-24.6 77.09-22.35 78.84-20.1 78.84-15.4L78.84-15.4 78.84 0 76.65 0 76.65-15.1Q76.65-18.95 75.37-20.78 74.09-22.6 71.15-22.6L71.15-22.6Q69-22.6 67.25-21.48 65.5-20.35 63.3-18.1L63.3-18.1 63.3 0ZM95.64 0.6L95.64 0.6Q91.09 0.6 88.39-2.63 85.69-5.85 85.69-11.95L85.69-11.95Q85.69-14.85 86.54-17.2 87.39-19.55 88.87-21.2 90.34-22.85 92.27-23.73 94.19-24.6 96.34-24.6L96.34-24.6Q98.54-24.6 100.17-23.83 101.79-23.05 103.59-21.65L103.59-21.65 103.49-26.05 103.49-35.95 105.69-35.95 105.69 0 103.79 0 103.59-3.1 103.44-3.1Q101.99-1.65 100.02-0.53 98.04 0.6 95.64 0.6ZM95.94-1.35L95.94-1.35Q97.94-1.35 99.77-2.38 101.59-3.4 103.49-5.3L103.49-5.3 103.49-19.55Q101.59-21.25 99.92-21.95 98.24-22.65 96.49-22.65L96.49-22.65Q94.69-22.65 93.14-21.83 91.59-21 90.47-19.58 89.34-18.15 88.69-16.18 88.04-14.2 88.04-11.95L88.04-11.95Q88.04-9.55 88.57-7.6 89.09-5.65 90.09-4.28 91.09-2.9 92.57-2.13 94.04-1.35 95.94-1.35ZM123.79 0.6L123.79 0.6Q121.44 0.6 119.47-0.25 117.49-1.1 116.02-2.7 114.54-4.3 113.72-6.63 112.89-8.95 112.89-11.95L112.89-11.95Q112.89-14.95 113.79-17.32 114.69-19.7 116.19-21.3 117.69-22.9 119.67-23.75 121.64-24.6 123.84-24.6L123.84-24.6Q126.34-24.6 127.99-23.7 129.64-22.8 130.89-21.65L130.89-21.65 129.59-20.1Q128.44-21.2 127.04-21.93 125.64-22.65 123.89-22.65L123.89-22.65Q122.04-22.65 120.47-21.88 118.89-21.1 117.72-19.68 116.54-18.25 115.87-16.3 115.19-14.35 115.19-11.95L115.19-11.95Q115.19-9.6 115.82-7.65 116.44-5.7 117.57-4.3 118.69-2.9 120.32-2.13 121.94-1.35 123.89-1.35L123.89-1.35Q125.79-1.35 127.42-2.15 129.04-2.95 130.29-4.1L130.29-4.1 131.44-2.55Q129.89-1.2 127.99-0.3 126.09 0.6 123.79 0.6ZM139.54 0L137.34 0 137.34-24 139.24-24 139.44-19.55 139.59-19.55Q140.79-21.8 142.51-23.2 144.24-24.6 146.39-24.6L146.39-24.6Q147.09-24.6 147.64-24.5 148.19-24.4 148.79-24.1L148.79-24.1 148.29-22.1Q147.69-22.35 147.24-22.43 146.79-22.5 146.09-22.5L146.09-22.5Q144.49-22.5 142.71-21.13 140.94-19.75 139.54-16.35L139.54-16.35 139.54 0ZM157.38 0.6L157.38 0.6Q155.94 0.6 154.69 0.2 153.44-0.2 152.48-1 151.53-1.8 150.98-3.05 150.44-4.3 150.44-6L150.44-6Q150.44-10 154.16-12.08 157.88-14.15 165.94-15.05L165.94-15.05Q165.94-16.4 165.73-17.78 165.53-19.15 164.88-20.23 164.23-21.3 163.13-21.98 162.03-22.65 160.23-22.65L160.23-22.65Q157.84-22.65 155.84-21.7 153.84-20.75 152.59-19.85L152.59-19.85 151.59-21.5Q152.23-21.95 153.16-22.5 154.09-23.05 155.23-23.5 156.38-23.95 157.73-24.28 159.09-24.6 160.53-24.6L160.53-24.6Q162.63-24.6 164.09-23.88 165.53-23.15 166.44-21.9 167.34-20.65 167.74-18.98 168.13-17.3 168.13-15.35L168.13-15.35 168.13 0 166.23 0 166.03-3.1 165.88-3.1Q164.03-1.65 161.91-0.53 159.78 0.6 157.38 0.6ZM157.78-1.3L157.78-1.3Q159.88-1.3 161.78-2.3 163.69-3.3 165.94-5.2L165.94-5.2 165.94-13.35Q162.23-12.9 159.69-12.25 157.13-11.6 155.59-10.7 154.03-9.8 153.36-8.65 152.69-7.5 152.69-6.1L152.69-6.1Q152.69-4.8 153.09-3.9 153.48-3 154.19-2.43 154.88-1.85 155.81-1.58 156.73-1.3 157.78-1.3ZM179.23 0L177.03 0 177.03-22.1 173.73-22.1 173.73-23.8 177.03-24 177.03-29.35Q177.03-32.95 178.58-34.75 180.13-36.55 182.98-36.55L182.98-36.55Q184.73-36.55 186.48-35.75L186.48-35.75 185.88-33.95Q185.13-34.35 184.41-34.5 183.68-34.65 182.98-34.65L182.98-34.65Q181.08-34.65 180.16-33.25 179.23-31.85 179.23-29.2L179.23-29.2 179.23-24 184.78-24 184.78-22.1 179.23-22.1 179.23 0ZM196.38 0.6L196.38 0.6Q194.63 0.6 193.48 0.08 192.33-0.45 191.63-1.4 190.93-2.35 190.66-3.7 190.38-5.05 190.38-6.65L190.38-6.65 190.38-22.1 186.63-22.1 186.63-23.8 190.43-24 190.73-30.95 192.63-30.95 192.63-24 199.58-24 199.58-22.1 192.63-22.1 192.63-6.45Q192.63-5.3 192.81-4.38 192.98-3.45 193.43-2.78 193.88-2.1 194.66-1.73 195.43-1.35 196.68-1.35L196.68-1.35Q197.38-1.35 198.21-1.58 199.03-1.8 199.68-2.1L199.68-2.1 200.28-0.3Q199.23 0.1 198.18 0.35 197.13 0.6 196.38 0.6ZM213.98 0.6L213.98 0.6Q211.68 0.6 209.65-0.25 207.63-1.1 206.13-2.73 204.63-4.35 203.75-6.68 202.88-9 202.88-11.95L202.88-11.95Q202.88-14.9 203.75-17.25 204.63-19.6 206.1-21.23 207.58-22.85 209.45-23.73 211.33-24.6 213.33-24.6L213.33-24.6Q217.63-24.6 220.08-21.7 222.53-18.8 222.53-13.5L222.53-13.5Q222.53-13.05 222.53-12.6 222.53-12.15 222.43-11.7L222.43-11.7 205.13-11.7Q205.18-9.45 205.83-7.53 206.48-5.6 207.65-4.23 208.83-2.85 210.48-2.08 212.13-1.3 214.18-1.3L214.18-1.3Q216.13-1.3 217.7-1.88 219.28-2.45 220.63-3.45L220.63-3.45 221.53-1.75Q220.08-0.9 218.35-0.15 216.63 0.6 213.98 0.6ZM205.13-13.5L205.13-13.5 220.43-13.5Q220.43-18.15 218.53-20.43 216.63-22.7 213.38-22.7L213.38-22.7Q211.83-22.7 210.43-22.08 209.03-21.45 207.9-20.25 206.78-19.05 206.05-17.35 205.33-15.65 205.13-13.5ZM236.98 0.6L236.98 0.6Q232.43 0.6 229.73-2.63 227.03-5.85 227.03-11.95L227.03-11.95Q227.03-14.85 227.88-17.2 228.73-19.55 230.2-21.2 231.68-22.85 233.6-23.73 235.53-24.6 237.68-24.6L237.68-24.6Q239.88-24.6 241.5-23.83 243.13-23.05 244.93-21.65L244.93-21.65 244.83-26.05 244.83-35.95 247.03-35.95 247.03 0 245.13 0 244.93-3.1 244.78-3.1Q243.33-1.65 241.35-0.53 239.38 0.6 236.98 0.6ZM237.28-1.35L237.28-1.35Q239.28-1.35 241.1-2.38 242.93-3.4 244.83-5.3L244.83-5.3 244.83-19.55Q242.93-21.25 241.25-21.95 239.58-22.65 237.83-22.65L237.83-22.65Q236.03-22.65 234.48-21.83 232.93-21 231.8-19.58 230.68-18.15 230.03-16.18 229.38-14.2 229.38-11.95L229.38-11.95Q229.38-9.55 229.9-7.6 230.43-5.65 231.43-4.28 232.43-2.9 233.9-2.13 235.38-1.35 237.28-1.35ZM275.87 0L273.57 0 273.57-30.95 263.07-30.95 263.07-32.95 286.37-32.95 286.37-30.95 275.87-30.95 275.87 0ZM292.17 0L289.97 0 289.97-24 291.87-24 292.07-19.55 292.22-19.55Q293.42-21.8 295.14-23.2 296.87-24.6 299.02-24.6L299.02-24.6Q299.72-24.6 300.27-24.5 300.82-24.4 301.42-24.1L301.42-24.1 300.92-22.1Q300.32-22.35 299.87-22.43 299.42-22.5 298.72-22.5L298.72-22.5Q297.12-22.5 295.34-21.13 293.57-19.75 292.17-16.35L292.17-16.35 292.17 0ZM314.42 0.6L314.42 0.6Q312.12 0.6 310.09-0.25 308.07-1.1 306.57-2.73 305.07-4.35 304.19-6.68 303.32-9 303.32-11.95L303.32-11.95Q303.32-14.9 304.19-17.25 305.07-19.6 306.54-21.23 308.02-22.85 309.89-23.73 311.77-24.6 313.77-24.6L313.77-24.6Q318.07-24.6 320.52-21.7 322.97-18.8 322.97-13.5L322.97-13.5Q322.97-13.05 322.97-12.6 322.97-12.15 322.87-11.7L322.87-11.7 305.57-11.7Q305.62-9.45 306.27-7.53 306.92-5.6 308.09-4.23 309.27-2.85 310.92-2.08 312.57-1.3 314.62-1.3L314.62-1.3Q316.57-1.3 318.14-1.88 319.72-2.45 321.07-3.45L321.07-3.45 321.97-1.75Q320.52-0.9 318.79-0.15 317.07 0.6 314.42 0.6ZM305.57-13.5L305.57-13.5 320.87-13.5Q320.87-18.15 318.97-20.43 317.07-22.7 313.82-22.7L313.82-22.7Q312.27-22.7 310.87-22.08 309.47-21.45 308.34-20.25 307.22-19.05 306.49-17.35 305.77-15.65 305.57-13.5ZM333.96 0.6L333.96 0.6Q332.51 0.6 331.26 0.2 330.01-0.2 329.06-1 328.11-1.8 327.56-3.05 327.01-4.3 327.01-6L327.01-6Q327.01-10 330.74-12.08 334.46-14.15 342.51-15.05L342.51-15.05Q342.51-16.4 342.31-17.78 342.11-19.15 341.46-20.23 340.81-21.3 339.71-21.98 338.61-22.65 336.81-22.65L336.81-22.65Q334.41-22.65 332.41-21.7 330.41-20.75 329.16-19.85L329.16-19.85 328.16-21.5Q328.81-21.95 329.74-22.5 330.66-23.05 331.81-23.5 332.96-23.95 334.31-24.28 335.66-24.6 337.11-24.6L337.11-24.6Q339.21-24.6 340.66-23.88 342.11-23.15 343.01-21.9 343.91-20.65 344.31-18.98 344.71-17.3 344.71-15.35L344.71-15.35 344.71 0 342.81 0 342.61-3.1 342.46-3.1Q340.61-1.65 338.49-0.53 336.36 0.6 333.96 0.6ZM334.36-1.3L334.36-1.3Q336.46-1.3 338.36-2.3 340.26-3.3 342.51-5.2L342.51-5.2 342.51-13.35Q338.81-12.9 336.26-12.25 333.71-11.6 332.16-10.7 330.61-9.8 329.94-8.65 329.26-7.5 329.26-6.1L329.26-6.1Q329.26-4.8 329.66-3.9 330.06-3 330.76-2.43 331.46-1.85 332.39-1.58 333.31-1.3 334.36-1.3ZM359.06 0.6L359.06 0.6Q356.36 0.6 354.11-0.38 351.86-1.35 350.26-2.7L350.26-2.7 351.56-4.35Q353.11-3.05 354.86-2.18 356.61-1.3 359.21-1.3L359.21-1.3Q362.06-1.3 363.49-2.73 364.91-4.15 364.91-6.05L364.91-6.05Q364.91-7.15 364.39-8 363.86-8.85 363.01-9.45 362.16-10.05 361.14-10.5 360.11-10.95 359.06-11.35L359.06-11.35Q357.71-11.85 356.34-12.4 354.96-12.95 353.86-13.73 352.76-14.5 352.09-15.58 351.41-16.65 351.41-18.2L351.41-18.2Q351.41-19.5 351.91-20.68 352.41-21.85 353.41-22.73 354.41-23.6 355.84-24.1 357.26-24.6 359.16-24.6L359.16-24.6Q361.06-24.6 362.89-23.9 364.71-23.2 366.01-22.1L366.01-22.1 364.81-20.55Q363.61-21.45 362.26-22.08 360.91-22.7 359.06-22.7L359.06-22.7Q357.66-22.7 356.66-22.33 355.66-21.95 354.99-21.35 354.31-20.75 353.99-19.95 353.66-19.15 353.66-18.35L353.66-18.35Q353.66-17.3 354.14-16.57 354.61-15.85 355.41-15.3 356.21-14.75 357.24-14.33 358.26-13.9 359.31-13.5L359.31-13.5Q360.71-12.95 362.11-12.4 363.51-11.85 364.64-11.05 365.76-10.25 366.46-9.08 367.16-7.9 367.16-6.15L367.16-6.15Q367.16-4.8 366.64-3.58 366.11-2.35 365.06-1.43 364.01-0.5 362.51 0.05 361.01 0.6 359.06 0.6ZM380.41 0.6L380.41 0.6Q376.66 0.6 374.91-1.65 373.16-3.9 373.16-8.6L373.16-8.6 373.16-24 375.36-24 375.36-8.9Q375.36-5.05 376.63-3.23 377.91-1.4 380.81-1.4L380.81-1.4Q382.96-1.4 384.71-2.58 386.46-3.75 388.56-6.3L388.56-6.3 388.56-24 390.76-24 390.76 0 388.91 0 388.66-4 388.56-4Q386.81-1.9 384.86-0.65 382.91 0.6 380.41 0.6ZM402.16 0L399.96 0 399.96-24 401.86-24 402.06-19.55 402.21-19.55Q403.41-21.8 405.13-23.2 406.86-24.6 409-24.6L409-24.6Q409.71-24.6 410.25-24.5 410.81-24.4 411.41-24.1L411.41-24.1 410.91-22.1Q410.31-22.35 409.86-22.43 409.41-22.5 408.71-22.5L408.71-22.5Q407.11-22.5 405.33-21.13 403.56-19.75 402.16-16.35L402.16-16.35 402.16 0ZM424.4 0.6L424.4 0.6Q422.1 0.6 420.08-0.25 418.05-1.1 416.55-2.73 415.05-4.35 414.18-6.68 413.3-9 413.3-11.95L413.3-11.95Q413.3-14.9 414.18-17.25 415.05-19.6 416.53-21.23 418-22.85 419.88-23.73 421.75-24.6 423.75-24.6L423.75-24.6Q428.05-24.6 430.5-21.7 432.95-18.8 432.95-13.5L432.95-13.5Q432.95-13.05 432.95-12.6 432.95-12.15 432.85-11.7L432.85-11.7 415.55-11.7Q415.6-9.45 416.25-7.53 416.9-5.6 418.08-4.23 419.25-2.85 420.9-2.08 422.55-1.3 424.6-1.3L424.6-1.3Q426.55-1.3 428.13-1.88 429.7-2.45 431.05-3.45L431.05-3.45 431.95-1.75Q430.5-0.9 428.78-0.15 427.05 0.6 424.4 0.6ZM415.55-13.5L415.55-13.5 430.85-13.5Q430.85-18.15 428.95-20.43 427.05-22.7 423.8-22.7L423.8-22.7Q422.25-22.7 420.85-22.08 419.45-21.45 418.33-20.25 417.2-19.05 416.48-17.35 415.75-15.65 415.55-13.5ZM445.25 0.6L445.25 0.6Q442.55 0.6 440.3-0.38 438.05-1.35 436.45-2.7L436.45-2.7 437.75-4.35Q439.3-3.05 441.05-2.18 442.8-1.3 445.4-1.3L445.4-1.3Q448.25-1.3 449.68-2.73 451.1-4.15 451.1-6.05L451.1-6.05Q451.1-7.15 450.58-8 450.05-8.85 449.2-9.45 448.35-10.05 447.33-10.5 446.3-10.95 445.25-11.35L445.25-11.35Q443.9-11.85 442.53-12.4 441.15-12.95 440.05-13.73 438.95-14.5 438.28-15.58 437.6-16.65 437.6-18.2L437.6-18.2Q437.6-19.5 438.1-20.68 438.6-21.85 439.6-22.73 440.6-23.6 442.03-24.1 443.45-24.6 445.35-24.6L445.35-24.6Q447.25-24.6 449.08-23.9 450.9-23.2 452.2-22.1L452.2-22.1 451-20.55Q449.8-21.45 448.45-22.08 447.1-22.7 445.25-22.7L445.25-22.7Q443.85-22.7 442.85-22.33 441.85-21.95 441.18-21.35 440.5-20.75 440.18-19.95 439.85-19.15 439.85-18.35L439.85-18.35Q439.85-17.3 440.33-16.57 440.8-15.85 441.6-15.3 442.4-14.75 443.43-14.33 444.45-13.9 445.5-13.5L445.5-13.5Q446.9-12.95 448.3-12.4 449.7-11.85 450.83-11.05 451.95-10.25 452.65-9.08 453.35-7.9 453.35-6.15L453.35-6.15Q453.35-4.8 452.83-3.58 452.3-2.35 451.25-1.43 450.2-0.5 448.7 0.05 447.2 0.6 445.25 0.6ZM474.95 0.6L474.95 0.6Q473.5 0.6 472.25 0.2 471-0.2 470.05-1 469.1-1.8 468.55-3.05 468-4.3 468-6L468-6Q468-10 471.72-12.08 475.45-14.15 483.5-15.05L483.5-15.05Q483.5-16.4 483.3-17.78 483.1-19.15 482.45-20.23 481.8-21.3 480.7-21.98 479.6-22.65 477.8-22.65L477.8-22.65Q475.4-22.65 473.4-21.7 471.4-20.75 470.15-19.85L470.15-19.85 469.15-21.5Q469.8-21.95 470.72-22.5 471.65-23.05 472.8-23.5 473.95-23.95 475.3-24.28 476.65-24.6 478.1-24.6L478.1-24.6Q480.2-24.6 481.65-23.88 483.1-23.15 484-21.9 484.9-20.65 485.3-18.98 485.7-17.3 485.7-15.35L485.7-15.35 485.7 0 483.8 0 483.6-3.1 483.45-3.1Q481.6-1.65 479.47-0.53 477.35 0.6 474.95 0.6ZM475.35-1.3L475.35-1.3Q477.45-1.3 479.35-2.3 481.25-3.3 483.5-5.2L483.5-5.2 483.5-13.35Q479.8-12.9 477.25-12.25 474.7-11.6 473.15-10.7 471.6-9.8 470.92-8.65 470.25-7.5 470.25-6.1L470.25-6.1Q470.25-4.8 470.65-3.9 471.05-3 471.75-2.43 472.45-1.85 473.37-1.58 474.3-1.3 475.35-1.3ZM500.24 0.6L500.24 0.6Q498.49 0.6 497.34 0.08 496.19-0.45 495.49-1.4 494.79-2.35 494.52-3.7 494.24-5.05 494.24-6.65L494.24-6.65 494.24-22.1 490.49-22.1 490.49-23.8 494.29-24 494.59-30.95 496.49-30.95 496.49-24 503.44-24 503.44-22.1 496.49-22.1 496.49-6.45Q496.49-5.3 496.67-4.38 496.84-3.45 497.29-2.78 497.74-2.1 498.52-1.73 499.29-1.35 500.54-1.35L500.54-1.35Q501.24-1.35 502.07-1.58 502.89-1.8 503.54-2.1L503.54-2.1 504.14-0.3Q503.09 0.1 502.04 0.35 500.99 0.6 500.24 0.6ZM526.99 0L524.69 0 524.69-13.35 514.84-32.95 517.29-32.95 522.29-22.65Q523.14-20.85 523.96-19.1 524.79-17.35 525.79-15.55L525.79-15.55 525.99-15.55Q526.94-17.35 527.84-19.1 528.74-20.85 529.54-22.65L529.54-22.65 534.54-32.95 536.89-32.95 526.99-13.35 526.99 0ZM548.74 0.6L548.74 0.6Q546.59 0.6 544.63-0.25 542.68-1.1 541.21-2.7 539.74-4.3 538.86-6.63 537.99-8.95 537.99-11.95L537.99-11.95Q537.99-14.95 538.86-17.32 539.74-19.7 541.21-21.3 542.68-22.9 544.63-23.75 546.59-24.6 548.74-24.6L548.74-24.6Q550.88-24.6 552.86-23.75 554.84-22.9 556.31-21.3 557.78-19.7 558.66-17.32 559.53-14.95 559.53-11.95L559.53-11.95Q559.53-8.95 558.66-6.63 557.78-4.3 556.31-2.7 554.84-1.1 552.86-0.25 550.88 0.6 548.74 0.6ZM548.74-1.35L548.74-1.35Q550.53-1.35 552.11-2.13 553.68-2.9 554.81-4.3 555.93-5.7 556.59-7.65 557.24-9.6 557.24-11.95L557.24-11.95Q557.24-14.35 556.59-16.3 555.93-18.25 554.81-19.68 553.68-21.1 552.11-21.88 550.53-22.65 548.74-22.65L548.74-22.65Q546.93-22.65 545.38-21.88 543.84-21.1 542.71-19.68 541.59-18.25 540.93-16.3 540.28-14.35 540.28-11.95L540.28-11.95Q540.28-9.6 540.93-7.65 541.59-5.7 542.71-4.3 543.84-2.9 545.38-2.13 546.93-1.35 548.74-1.35ZM573.63 0.6L573.63 0.6Q569.88 0.6 568.13-1.65 566.38-3.9 566.38-8.6L566.38-8.6 566.38-24 568.58-24 568.58-8.9Q568.58-5.05 569.86-3.23 571.13-1.4 574.03-1.4L574.03-1.4Q576.18-1.4 577.93-2.58 579.68-3.75 581.78-6.3L581.78-6.3 581.78-24 583.98-24 583.98 0 582.13 0 581.88-4 581.78-4Q580.03-1.9 578.08-0.65 576.13 0.6 573.63 0.6ZM595.38 0L593.18 0 593.18-24 595.08-24 595.28-19.55 595.43-19.55Q596.63-21.8 598.35-23.2 600.08-24.6 602.23-24.6L602.23-24.6Q602.93-24.6 603.48-24.5 604.03-24.4 604.63-24.1L604.63-24.1 604.13-22.1Q603.53-22.35 603.08-22.43 602.63-22.5 601.93-22.5L601.93-22.5Q600.33-22.5 598.55-21.13 596.78-19.75 595.38-16.35L595.38-16.35 595.38 0ZM621.57 0L619.27 0 619.27-32.95 637.22-32.95 637.22-30.95 621.57-30.95 621.57-17.85 634.82-17.85 634.82-15.85 621.57-15.85 621.57 0ZM645.07 0L642.87 0 642.87-24 645.07-24 645.07 0ZM644.02-29.8L644.02-29.8Q643.17-29.8 642.6-30.35 642.02-30.9 642.02-31.75L642.02-31.75Q642.02-32.7 642.6-33.23 643.17-33.75 644.02-33.75L644.02-33.75Q644.87-33.75 645.45-33.23 646.02-32.7 646.02-31.75L646.02-31.75Q646.02-30.9 645.45-30.35 644.87-29.8 644.02-29.8ZM656.52 0L654.32 0 654.32-24 656.22-24 656.42-20.3 656.57-20.3Q658.42-22.15 660.37-23.38 662.32-24.6 664.82-24.6L664.82-24.6Q668.57-24.6 670.32-22.35 672.07-20.1 672.07-15.4L672.07-15.4 672.07 0 669.87 0 669.87-15.1Q669.87-18.95 668.59-20.78 667.32-22.6 664.37-22.6L664.37-22.6Q662.22-22.6 660.47-21.48 658.72-20.35 656.52-18.1L656.52-18.1 656.52 0ZM688.77 11.55L688.77 11.55Q684.22 11.55 681.57 9.75 678.92 7.95 678.92 4.9L678.92 4.9Q678.92 3.3 679.87 1.8 680.82 0.3 682.47-0.9L682.47-0.9 682.47-1.1Q681.57-1.65 680.97-2.6 680.37-3.55 680.37-4.95L680.37-4.95Q680.37-6.55 681.27-7.68 682.17-8.8 682.97-9.35L682.97-9.35 682.97-9.55Q681.82-10.55 680.89-12.25 679.97-13.95 679.97-16.15L679.97-16.15Q679.97-18 680.62-19.55 681.27-21.1 682.42-22.23 683.57-23.35 685.12-23.98 686.67-24.6 688.42-24.6L688.42-24.6Q689.42-24.6 690.22-24.43 691.02-24.25 691.57-24L691.57-24 699.72-24 699.72-22.15 694.12-22.15Q695.27-21.15 696.02-19.58 696.77-18 696.77-16.1L696.77-16.1Q696.77-14.25 696.12-12.7 695.47-11.15 694.34-10.03 693.22-8.9 691.69-8.28 690.17-7.65 688.42-7.65L688.42-7.65Q687.42-7.65 686.34-7.9 685.27-8.15 684.42-8.65L684.42-8.65Q683.62-8 683.04-7.2 682.47-6.4 682.47-5.2L682.47-5.2Q682.47-3.9 683.42-2.98 684.37-2.05 687.07-2.05L687.07-2.05 692.22-2.05Q696.27-2.05 698.19-0.73 700.12 0.6 700.12 3.45L700.12 3.45Q700.12 5 699.32 6.48 698.52 7.95 697.04 9.08 695.57 10.2 693.47 10.88 691.37 11.55 688.77 11.55ZM688.42-9.4L688.42-9.4Q689.67-9.4 690.79-9.88 691.92-10.35 692.77-11.25 693.62-12.15 694.12-13.4 694.62-14.65 694.62-16.15L694.62-16.15Q694.62-17.65 694.12-18.9 693.62-20.15 692.79-21 691.97-21.85 690.82-22.33 689.67-22.8 688.42-22.8L688.42-22.8Q687.12-22.8 685.99-22.33 684.87-21.85 684.02-21 683.17-20.15 682.67-18.93 682.17-17.7 682.17-16.15L682.17-16.15Q682.17-14.65 682.67-13.4 683.17-12.15 684.04-11.25 684.92-10.35 686.04-9.88 687.17-9.4 688.42-9.4ZM689.02 9.75L689.02 9.75Q691.02 9.75 692.67 9.22 694.32 8.7 695.47 7.85 696.62 7 697.24 5.93 697.87 4.85 697.87 3.7L697.87 3.7Q697.87 1.7 696.44 0.88 695.02 0.05 692.32 0.05L692.32 0.05 687.17 0.05Q686.77 0.05 685.94-0.03 685.12-0.1 684.17-0.35L684.17-0.35Q682.52 0.8 681.77 2.1 681.02 3.4 681.02 4.7L681.02 4.7Q681.02 6.95 683.09 8.35 685.17 9.75 689.02 9.75ZM713.81 0.6L713.81 0.6Q711.51 0.6 709.49-0.25 707.46-1.1 705.96-2.73 704.46-4.35 703.59-6.68 702.71-9 702.71-11.95L702.71-11.95Q702.71-14.9 703.59-17.25 704.46-19.6 705.94-21.23 707.41-22.85 709.29-23.73 711.16-24.6 713.16-24.6L713.16-24.6Q717.46-24.6 719.91-21.7 722.36-18.8 722.36-13.5L722.36-13.5Q722.36-13.05 722.36-12.6 722.36-12.15 722.26-11.7L722.26-11.7 704.96-11.7Q705.01-9.45 705.66-7.53 706.31-5.6 707.49-4.23 708.66-2.85 710.31-2.08 711.96-1.3 714.01-1.3L714.01-1.3Q715.96-1.3 717.54-1.88 719.11-2.45 720.46-3.45L720.46-3.45 721.36-1.75Q719.91-0.9 718.19-0.15 716.46 0.6 713.81 0.6ZM704.96-13.5L704.96-13.5 720.26-13.5Q720.26-18.15 718.36-20.43 716.46-22.7 713.21-22.7L713.21-22.7Q711.66-22.7 710.26-22.08 708.86-21.45 707.74-20.25 706.61-19.05 705.89-17.35 705.16-15.65 704.96-13.5ZM731.06 0L728.86 0 728.86-24 730.76-24 730.96-19.55 731.11-19.55Q732.31-21.8 734.04-23.2 735.76-24.6 737.91-24.6L737.91-24.6Q738.61-24.6 739.16-24.5 739.71-24.4 740.31-24.1L740.31-24.1 739.81-22.1Q739.21-22.35 738.76-22.43 738.31-22.5 737.61-22.5L737.61-22.5Q736.01-22.5 734.24-21.13 732.46-19.75 731.06-16.35L731.06-16.35 731.06 0ZM751.26 0.6L751.26 0.6Q749.51 0.6 748.36 0.08 747.21-0.45 746.51-1.4 745.81-2.35 745.53-3.7 745.26-5.05 745.26-6.65L745.26-6.65 745.26-22.1 741.51-22.1 741.51-23.8 745.31-24 745.61-30.95 747.51-30.95 747.51-24 754.46-24 754.46-22.1 747.51-22.1 747.51-6.45Q747.51-5.3 747.68-4.38 747.86-3.45 748.31-2.78 748.76-2.1 749.53-1.73 750.31-1.35 751.56-1.35L751.56-1.35Q752.26-1.35 753.08-1.58 753.91-1.8 754.56-2.1L754.56-2.1 755.16-0.3Q754.11 0.1 753.06 0.35 752.01 0.6 751.26 0.6ZM762.51 0L760.31 0 760.31-24 762.51-24 762.51 0ZM761.46-29.8L761.46-29.8Q760.61-29.8 760.03-30.35 759.46-30.9 759.46-31.75L759.46-31.75Q759.46-32.7 760.03-33.23 760.61-33.75 761.46-33.75L761.46-33.75Q762.31-33.75 762.88-33.23 763.46-32.7 763.46-31.75L763.46-31.75Q763.46-30.9 762.88-30.35 762.31-29.8 761.46-29.8ZM773.95 10.85L771.75 10.85 771.75-24 773.65-24 773.85-21 774-21Q775.75-22.4 777.83-23.5 779.9-24.6 782.15-24.6L782.15-24.6Q786.95-24.6 789.35-21.28 791.75-17.95 791.75-12.35L791.75-12.35Q791.75-9.3 790.9-6.9 790.05-4.5 788.58-2.83 787.1-1.15 785.18-0.28 783.25 0.6 781.15 0.6L781.15 0.6Q779.45 0.6 777.65-0.18 775.85-0.95 773.95-2.35L773.95-2.35 773.95 10.85ZM781.05-1.35L781.05-1.35Q782.85-1.35 784.4-2.15 785.95-2.95 787.05-4.4 788.15-5.85 788.78-7.88 789.4-9.9 789.4-12.35L789.4-12.35Q789.4-14.55 788.98-16.45 788.55-18.35 787.65-19.73 786.75-21.1 785.3-21.88 783.85-22.65 781.8-22.65L781.8-22.65Q780-22.65 778.08-21.63 776.15-20.6 773.95-18.7L773.95-18.7 773.95-4.45Q776.05-2.75 777.85-2.05 779.65-1.35 781.05-1.35ZM804.75 0.6L804.75 0.6Q802.05 0.6 799.8-0.38 797.55-1.35 795.95-2.7L795.95-2.7 797.25-4.35Q798.8-3.05 800.55-2.18 802.3-1.3 804.9-1.3L804.9-1.3Q807.75-1.3 809.18-2.73 810.6-4.15 810.6-6.05L810.6-6.05Q810.6-7.15 810.08-8 809.55-8.85 808.7-9.45 807.85-10.05 806.83-10.5 805.8-10.95 804.75-11.35L804.75-11.35Q803.4-11.85 802.03-12.4 800.65-12.95 799.55-13.73 798.45-14.5 797.78-15.58 797.1-16.65 797.1-18.2L797.1-18.2Q797.1-19.5 797.6-20.68 798.1-21.85 799.1-22.73 800.1-23.6 801.53-24.1 802.95-24.6 804.85-24.6L804.85-24.6Q806.75-24.6 808.58-23.9 810.4-23.2 811.7-22.1L811.7-22.1 810.5-20.55Q809.3-21.45 807.95-22.08 806.6-22.7 804.75-22.7L804.75-22.7Q803.35-22.7 802.35-22.33 801.35-21.95 800.68-21.35 800-20.75 799.68-19.95 799.35-19.15 799.35-18.35L799.35-18.35Q799.35-17.3 799.83-16.57 800.3-15.85 801.1-15.3 801.9-14.75 802.93-14.33 803.95-13.9 805-13.5L805-13.5Q806.4-12.95 807.8-12.4 809.2-11.85 810.33-11.05 811.45-10.25 812.15-9.08 812.85-7.9 812.85-6.15L812.85-6.15Q812.85-4.8 812.33-3.58 811.8-2.35 810.75-1.43 809.7-0.5 808.2 0.05 806.7 0.6 804.75 0.6Z" opacity="1" transform="matrix(1,0,0,1,0,0)" fill="#111111" class="slogan-text-1" data-fill-palette-color="secondary" id="text-1"></path></svg></g></svg></g></svg></g></svg></g><g transform="matrix(1,0,0,1,0,0.1395289190154223)"><svg viewBox="0 0 53.28386170928719 55.811567606170655" height="55.811567606170655" width="53.28386170928719"><g><svg version="1.0" xmlns="http://www.w3.org/2000/svg" xmlns:xlink="http://www.w3.org/1999/xlink" x="0" y="0" viewBox="0 0 95.471 100" enable-background="new 0 0 95.471 100" xml:space="preserve" id="icon-0" width="53.28386170928719" height="55.811567606170655" class="icon-icon-0" data-fill-palette-color="accent"><path d="M47.735 0C47.652 2.825 45.997 13.412 27.936 30.934 10.554 47.797 2.439 49.824 0 50 2.439 50.178 10.554 52.204 27.936 69.066 45.997 86.589 47.652 97.177 47.735 100 47.818 97.177 49.474 86.589 67.533 69.066 84.917 52.204 93.031 50.178 95.471 50 93.032 49.824 84.917 47.797 67.533 30.934 49.475 13.412 47.819 2.825 47.735 0" fill="#111111" data-fill-palette-color="accent"></path></svg></g></svg></g></svg></g><defs></defs></svg><rect width="395.52" height="47.41466506364649" fill="none" stroke="none" visibility="hidden"></rect></g></svg></g></svg>